# xmcd
#
# Track frame offsets:
#	150
#	16660
#	28660
#	44792
#	55622
#	68222
#	84310
#	97285
#	109297
#	119485
#	134205
#	151040
#	168785
#	186972
#	203866
#	211470
#
# Disc length: 3008
#
# Revision: 2
# Processed by: cddbd v1.5.1PL0 Copyright (c) Steve Scherf et al.
# Submitted via: audiograbber 1.83.01
# Normalized: r1:DSETVAR1
#
DISCID=e50bbe10
DTITLE=Various Artist - Country Christrmas Songs
DYEAR=2002
DGENRE=Country
TTITLE0=Johnny Cash - Christmas as I knew it
TTITLE1=Tammy Wynette - White Christmas
TTITLE2=B.J. Thomas - The First Noel
TTITLE3=Willie Nelson - Pretty Paper
TTITLE4=Chet Atkins - East Tennessee Christmas
TTITLE5=Alabama - Christmas in Dixie
TTITLE6=Alan Jackson - Honky Tonk Christmas
TTITLE7=Marty Robbins - Merry Christmas to you from me
TTITLE8=Merle Haggard - Santa Claus is coming to town
TTITLE9=Mickey Gilley - I'll be home for christmas
TTITLE10=Clint Black - Under the Mistletoe
TTITLE11=Rosanne Cash - It come upon a midnight clear
TTITLE12=Charles Daniels - My christmas love song to you
TTITLE13=Louise Mandrell - Christmas is just a song this year
TTITLE14=Ray Price - Jingle Bells
TTITLE15=Gene Autry - Rudolph the Red-Nosed Rendeer
EXTD=
EXTT0=
EXTT1=
EXTT2=
EXTT3=
EXTT4=
EXTT5=
EXTT6=
EXTT7=
EXTT8=
EXTT9=
EXTT10=
EXTT11=
EXTT12=
EXTT13=
EXTT14=
EXTT15=
PLAYORDER=
